<svg width="19" height="20" viewBox="0 0 19 20" fill="none" xmlns="http://www.w3.org/2000/svg">
<path fill-rule="evenodd" clip-rule="evenodd" d="M13.9522 0.735076V1.76997C16.9609 2.06186 18.5 3.72477 18.5 6.71446V14.9848C18.5 18.3106 16.6043 20 12.8739 20H6.12609C2.39565 20 0.5 18.3106 0.5 14.9848V6.71446C0.5 4.72428 1.17826 3.30019 2.56957 2.46874C2.78888 2.31904 3.07263 2.30859 3.30202 2.44176C3.5314 2.57494 3.66687 2.82876 3.65169 3.09698C3.63652 3.3652 3.47333 3.60155 3.23043 3.70708C2.3087 4.25548 1.87391 5.21077 1.87391 6.71446V6.97981H14.5609C14.9403 6.97981 15.2478 7.29266 15.2478 7.67859C15.2478 8.06451 14.9403 8.37736 14.5609 8.37736H1.87391V14.9848C1.87391 17.5233 3.1087 18.5759 6.12609 18.5936H12.8739C15.8478 18.5936 17.1174 17.5145 17.1174 14.9759V6.70561C17.1174 4.4943 16.1522 3.42403 13.9522 3.16752V3.83975C13.9014 4.19806 13.593 4.45964 13.2374 4.44599C12.8818 4.43234 12.5936 4.14786 12.5696 3.78668V0.673159C12.5763 0.486183 12.6565 0.309767 12.7921 0.183413C12.9278 0.0570589 13.1076 -0.00867809 13.2913 0.00092119C13.67 0.0246108 13.9623 0.349232 13.9522 0.735076ZM6.20877 4.29279C6.07806 4.42409 5.90109 4.49667 5.71739 4.4943C5.3414 4.48465 5.04295 4.16923 5.04783 3.78668V0.735076C5.08736 0.377086 5.38498 0.106447 5.73913 0.106447C6.09328 0.106447 6.3909 0.377086 6.43043 0.735076V1.69921H10.3609C10.7403 1.69921 11.0478 2.01206 11.0478 2.39798C11.0478 2.7839 10.7403 3.09675 10.3609 3.09675H6.41304V3.79553C6.41306 3.9824 6.33949 4.16149 6.20877 4.29279ZM13.6913 10.6152C13.2111 10.6152 12.8217 11.0112 12.8217 11.4997C12.8217 11.9882 13.2111 12.3843 13.6913 12.3843C14.1716 12.3843 14.5609 11.9882 14.5609 11.4997C14.5609 11.2636 14.4681 11.0373 14.3031 10.8711C14.1382 10.705 13.9147 10.6128 13.6826 10.6152H13.6913ZM8.64783 11.4997C8.64783 11.0112 9.03714 10.6152 9.51739 10.6152C9.99764 10.6152 10.387 11.0112 10.387 11.4997C10.387 11.9882 9.99764 12.3843 9.51739 12.3843C9.03714 12.3843 8.64783 11.9882 8.64783 11.4997ZM5.35217 10.6152C4.87193 10.6152 4.48261 11.0112 4.48261 11.4997C4.48261 11.9882 4.87193 12.3843 5.35217 12.3843C5.83242 12.3843 6.22174 11.9882 6.22174 11.4997C6.22175 11.2636 6.12894 11.0373 5.96398 10.8711C5.79902 10.705 5.5756 10.6128 5.34348 10.6152H5.35217ZM12.8217 15.082C12.8217 14.5935 13.2111 14.1975 13.6913 14.1975H13.6826C13.9147 14.1952 14.1382 14.2873 14.3031 14.4534C14.4681 14.6196 14.5609 14.8459 14.5609 15.082C14.5609 15.5706 14.1716 15.9666 13.6913 15.9666C13.2111 15.9666 12.8217 15.5706 12.8217 15.082ZM9.51739 14.1975C9.03714 14.1975 8.64783 14.5935 8.64783 15.082C8.64783 15.5706 9.03714 15.9666 9.51739 15.9666C9.99764 15.9666 10.387 15.5706 10.387 15.082C10.387 14.5935 9.99764 14.1975 9.51739 14.1975ZM4.48261 15.082C4.48261 14.5935 4.87193 14.1975 5.35217 14.1975H5.34348C5.5756 14.1952 5.79902 14.2873 5.96398 14.4534C6.12894 14.6196 6.22175 14.8459 6.22174 15.082C6.22174 15.5706 5.83242 15.9666 5.35217 15.9666C4.87193 15.9666 4.48261 15.5706 4.48261 15.082Z" fill="#09121C"/>
</svg>
