<svg width="21" height="20" viewBox="0 0 21 20" fill="none" xmlns="http://www.w3.org/2000/svg">
<path fill-rule="evenodd" clip-rule="evenodd" d="M10.5067 0C12.1245 0 13.7361 0.399066 15.168 1.15403C20.0432 3.72638 21.9181 9.78549 19.3475 14.6624C17.5942 17.9879 14.142 20 10.4953 20C9.78286 20 9.06337 19.9234 8.34741 19.7648C7.94408 19.6749 7.68957 19.275 7.77851 18.8715C7.86746 18.468 8.26639 18.2152 8.67237 18.3024C12.3966 19.1305 16.2415 17.3431 18.023 13.9638C20.2088 9.81809 18.6148 4.66546 14.4696 2.47897C13.2526 1.83676 11.8823 1.4976 10.5059 1.4976H10.4962C5.81028 1.4976 1.9971 5.31119 1.9971 9.99868C1.99534 11.3641 2.32822 12.7234 2.95964 13.9312L3.15162 14.3065C3.38675 14.747 3.43871 15.294 3.28636 15.7891C3.07588 16.3441 2.90064 16.8841 2.75621 17.4215C3.31806 17.2523 4.00408 17.003 4.49988 16.8224L4.70331 16.7493C5.08815 16.6057 5.52055 16.8092 5.66145 17.1986C5.80235 17.5871 5.60069 18.017 5.21232 18.1571L5.01154 18.2302L4.97736 18.2426L4.97733 18.2426C4.23908 18.5101 3.24506 18.8703 2.5704 19.0213C2.51227 19.0336 2.44975 19.0415 2.39251 19.0398C1.93281 19.0398 1.65277 18.8539 1.49865 18.6971C1.26176 18.4566 1.14904 18.1192 1.16225 17.6946C1.16401 17.6461 1.17017 17.5959 1.18162 17.5475C1.35951 16.7899 1.59112 16.034 1.87117 15.3019C1.89142 15.2306 1.87909 15.1011 1.82185 14.9927L1.62899 14.6183C0.89013 13.2035 0.498245 11.6029 0.500006 9.9978C0.500006 4.48487 4.98424 0 10.4953 0H10.5067ZM4.90348 9.99912C4.90348 9.34282 5.43627 8.80985 6.09235 8.80985C6.74843 8.80985 7.28122 9.34282 7.28122 9.99912C7.28122 10.6545 6.74843 11.1875 6.09235 11.1875C5.43627 11.1875 4.90348 10.6545 4.90348 9.99912ZM11.6845 9.99877C11.6845 9.34335 11.1517 8.8095 10.4956 8.8095C9.83957 8.8095 9.30678 9.34335 9.30678 9.99877C9.30678 10.6542 9.83957 11.188 10.4956 11.188C11.1517 11.188 11.6845 10.6542 11.6845 9.99877ZM14.8989 8.8095C15.5549 8.8095 16.0877 9.34335 16.0877 9.99877C16.0877 10.6542 15.5549 11.188 14.8989 11.188C14.2428 11.188 13.71 10.6542 13.71 9.99877C13.71 9.34335 14.2428 8.8095 14.8989 8.8095Z" fill="#09121C"/>
</svg>
