<svg width="17" height="20" viewBox="0 0 17 20" fill="none" xmlns="http://www.w3.org/2000/svg">
<path fill-rule="evenodd" clip-rule="evenodd" d="M4.55836 5.35387C4.55836 3.19392 6.32642 1.43696 8.5 1.43696C10.6736 1.43696 12.4416 3.19392 12.4416 5.35387C12.4416 7.51281 10.6736 9.26977 8.5 9.26977C6.32642 9.26977 4.55836 7.51281 4.55836 5.35387ZM3.11233 5.35387C3.11233 8.30479 5.52943 10.7067 8.5 10.7067C11.4706 10.7067 13.8867 8.30479 13.8867 5.35387C13.8867 2.40194 11.4706 0 8.5 0C5.52943 0 3.11233 2.40194 3.11233 5.35387ZM7.47761 19.985C7.8127 19.995 8.15384 20 8.5 20C11.9345 20 16.5 19.619 16.5 16.3301C16.5 12.6392 10.4784 12.6392 8.5 12.6392C5.06553 12.6392 0.5 13.0202 0.5 16.3101C0.5 17.2951 0.960881 18.624 3.1566 19.363C3.53597 19.493 3.94453 19.288 4.07333 18.913C4.20113 18.538 3.99887 18.131 3.6205 18.004C2.11811 17.4981 1.94503 16.7951 1.94503 16.3101C1.94503 14.8271 4.15082 14.0751 8.5 14.0751C12.8492 14.0751 15.055 14.8341 15.055 16.3301C15.055 17.8121 12.8492 18.563 8.5 18.563C8.16792 18.563 7.84088 18.559 7.51887 18.55C7.13245 18.553 6.7883 18.851 6.77723 19.247C6.76516 19.644 7.07912 19.975 7.47761 19.985Z" fill="#09121C"/>
</svg>
